<?xml version="1.0" encoding="UTF-8" standalone="no"?>
<svg
   id="_0309_crossed_flags"
   viewBox="0 0 500 500"
   data-imageid="crossed-flags-60"
   imageName="Crossed Flags"
   class="illustrations_image"
   style="width: 151px;"
   version="1.1"
   sodipodi:docname="finish.svg"
   inkscape:version="1.3.2 (091e20e, 2023-11-25, custom)"
   xmlns:inkscape="http://www.inkscape.org/namespaces/inkscape"
   xmlns:sodipodi="http://sodipodi.sourceforge.net/DTD/sodipodi-0.dtd"
   xmlns="http://www.w3.org/2000/svg"
   xmlns:svg="http://www.w3.org/2000/svg">
  <sodipodi:namedview
     id="namedview5"
     pagecolor="#ffffff"
     bordercolor="#000000"
     borderopacity="0.25"
     inkscape:showpageshadow="2"
     inkscape:pageopacity="0.0"
     inkscape:pagecheckerboard="0"
     inkscape:deskcolor="#d1d1d1"
     inkscape:zoom="1.018"
     inkscape:cx="250"
     inkscape:cy="250"
     inkscape:window-width="1366"
     inkscape:window-height="705"
     inkscape:window-x="-8"
     inkscape:window-y="-8"
     inkscape:window-maximized="1"
     inkscape:current-layer="_0309_crossed_flags" />
  <defs
     id="defs1">
    <style
       id="style1">.cls-1_crossed-flags-60,.cls-2_crossed-flags-60{fill:#e6e6e6;}.cls-2_crossed-flags-60{opacity:.3;}.cls-3_crossed-flags-60{opacity:.58;}.cls-3_crossed-flags-60,.cls-4_crossed-flags-60,.cls-5_crossed-flags-60{fill:#68e1fd;}.cls-6_crossed-flags-60{fill:#24285b;}.cls-4_crossed-flags-60{opacity:.73;}.cls-7_crossed-flags-60{fill:#ffd200;}</style>
  </defs>
  <ellipse
     id="sd_crossed-flags-60"
     class="cls-2_crossed-flags-60"
     cx="261.9"
     cy="422.54"
     rx="179.75"
     ry="25.15" />
  <g
     id="flag2_crossed-flags-60">
    <path
       class="cls-5_crossed-flags-60 targetColor"
       d="m210.44,69.39s-32.11,41.93-87.35,20.32c-55.24-21.61-107.69,18.38-107.69,18.38,0,0,19.28,100.23,21.57,113.76,0,0,27.3-33.96,93.11-16.3,65.81,17.66,92.18-2.15,102.36-17.16l-22-119.01Z"
       style="fill:#4caf50;fill-opacity:1"
       id="path1" />
    <rect
       class="cls-1_crossed-flags-60"
       x="242.77"
       y="49.27"
       width="9.98"
       height="374.61"
       transform="translate(539.2 416.6) rotate(168.03)"
       id="rect1" />
  </g>
  <g
     id="flag1_crossed-flags-60">
    <path
       class="cls-7_crossed-flags-60"
       d="m288.91,70.27s32.85,41.36,87.69,18.79c54.85-22.57,108,16.49,108,16.49,0,0-17.52,100.56-19.57,114.12,0,0-27.89-33.48-93.38-14.66-65.49,18.81-92.2-.53-102.65-15.36l19.91-119.38Z"
       id="path2"
       style="fill:#ffc107;fill-opacity:1" />
    <rect
       class="cls-1_crossed-flags-60"
       x="249.54"
       y="50.77"
       width="9.98"
       height="374.61"
       transform="translate(49.95 -44.08) rotate(10.97)"
       id="rect2" />
  </g>
  <g
     id="plant_crossed-flags-60"
     inkscape:export-filename="end-message.png"
     inkscape:export-xdpi="150"
     inkscape:export-ydpi="150">
    <path
       class="cls-3_crossed-flags-60 targetColor"
       d="m360.63,400.41s-19.92-5.44-24.25-23.98c0,0,30.86-6.24,31.74,25.62l-7.49-1.64Z"
       style="fill: rgb(104, 225, 253);"
       id="path3" />
    <path
       class="cls-4_crossed-flags-60 targetColor"
       d="m363.07,398.43s-13.92-22-1.67-42.57c0,0,23.47,14.9,13.04,42.62l-11.37-.05Z"
       style="fill: rgb(104, 225, 253);"
       id="path4" />
    <path
       class="cls-5_crossed-flags-60 targetColor"
       d="m366.66,398.45s7.35-23.23,29.58-27.63c0,0,4.17,15.09-14.39,27.7l-15.19-.06Z"
       style="fill: rgb(104, 225, 253);"
       id="path5" />
    <polygon
       class="cls-6_crossed-flags-60"
       points="352.21 397.92 356.25 425.55 381.68 425.65 385.43 398.06 352.21 397.92"
       id="polygon5" />
  </g>
</svg>
